<?xml version="1.0" encoding="utf-8"?>
<!-- Generator: Adobe Illustrator 18.0.0, SVG Export Plug-In . SVG Version: 6.00 Build 0)  -->
<!DOCTYPE svg PUBLIC "-//W3C//DTD SVG 1.1//EN" "http://www.w3.org/Graphics/SVG/1.1/DTD/svg11.dtd">
<svg version="1.1" id="Слой_2" xmlns="http://www.w3.org/2000/svg" xmlns:xlink="http://www.w3.org/1999/xlink" x="0px" y="0px"
	 viewBox="0 170 1200 483" enable-background="new 0 170 1200 483" xml:space="preserve">
<path fill="#000000"    d="M242,482c-33,0-59.8,26.8-59.8,59.8
	s26.8,59.8,59.8,59.8s59.8-26.8,59.8-59.8S275.1,482,242,482z M242,587.5c-25.2,0-45.7-20.5-45.7-45.7c0-25.2,20.5-45.7,45.7-45.7
	c25.2,0,45.7,20.5,45.7,45.7C287.7,567,267.3,587.5,242,587.5z"/>
<path fill="#000000"    d="M1006.2,482c-33,0-59.8,26.8-59.8,59.8
	s26.8,59.8,59.8,59.8c33,0,59.8-26.8,59.8-59.8S1039.3,482,1006.2,482z M1006.2,587.5c-25.2,0-45.7-20.5-45.7-45.7
	c0-25.2,20.5-45.7,45.7-45.7c25.2,0,45.7,20.5,45.7,45.7C1051.9,567,1031.5,587.5,1006.2,587.5z"/>
<path fill="#000000"    d="M1189.3,496.3c-2.3-4.4-6.4-9.3-7.7-8
	s-2.8,3.1-2.8,3.1s-9.3-7.5-12.6-9.4c-2.4-1.4-13.9-9-20.5-13.4c-0.9-3.6-1.6-6-1.6-6s-0.3-2.3,0.5-5.9c0.8-3.6-2.8-9.8-2.8-9.8
	s0,0,4.9-11.8c4.9-11.8,0-16.4,0-16.4l-21.6-2.1c0,0-6.9-10.5-19-24.7c-12.1-14.1-21.3-22.6-48.1-38.3
	c-26.7-15.7-57.8-28.3-103.6-37.8s-108.7-15.4-124.6-16.7s-32.6,4.1-33.4,1.3c-0.8-2.8-9-7.2-9-7.2s-42.9-68.9-50.9-80.4
	c-8-11.6-26-19-66.6-27.2c-40.6-8.2-116.4-8-159.3-7.7c-42.9,0.3-127.2,12.3-155.7,19.8s-83.5,38.8-108.2,55.8s-71.2,60.1-90.2,83
	c-19,22.9-39.6,53.7-39.6,53.7s-2.8-0.8-8.7,0c-5.9,0.8-20.3,5.1-26,8.7c-5.7,3.6-9.5,8-7.5,12.6c2.1,4.6,14.9,16.4,14.9,17.2
	c0,0.8-0.5,3.1-0.5,3.1s-6.9,3.3-8.2,4.1s-3.3,3.1-3.3,3.1l-15.2,41.6l-5.9,5.4l-21.3,11.1c0,0-0.3,5.7-1.8-2.8
	c-1.5-8.5-4.9-12.3-10-10.8c-5.1,1.5-5.7,11.8-5.7,11.8l-2.6,0.3l-8.2,7.7c0,0-2.1,8.2-2.1,21.4c0,13.1,10.3,20.8,10.3,20.8
	l-4.6,1.5l1.5,7.2l16.7-0.5c0,0,14.6,1.3,29.6,3.3c14.9,2.1,31.4-4.4,42.4-10.3c1.4-0.7,2.8-1.7,4.1-2.9c5,1.7,10.8,3.6,15.1,4.7
	c5.4,1.3,12.6,1.2,17.7,0.9c3.9,54.2,49.1,97,104.3,97c54.6,0,99.4-41.8,104.2-95.1c1.2,5.3,2.3,10.9,2.7,14.4
	c1,8.2,6.2,13.1,10,15.9s17,2.8,23.4,1.8c6.4-1,6.7-4.1,6.7-4.1s0.8,2.3,6.2,2.3s415.8,6.2,423,5.9c7.2-0.3,8.7-1,8.7-1
	s1.5,2.1,6.9,2.6s11.8,1.5,29,0c17.2-1.5,14.4-7.7,17.2-12.6s5.1-15.2,5.1-15.2h18.2c9.1,48.4,51.7,85.1,102.8,85.1
	c57.6,0,104.4-46.6,104.6-104.2l25-4c0,0,3.1,2.6,6.7,3.6c3.6,1,14.1-3.6,14.1-3.6l-3.6-19.5l22.9-0.3c0,0,2.8,0.8,3.1,4.6
	c0.3,3.9-4.4,8.2-8.5,9.5c-4.1,1.3-4.6,4.1-5.9,7.5c-1.3,3.3,1.5,13.4,2.6,15.2c1,1.8,3.6,2.1,13.6-3.9c10-5.9,12.8-24.4,13.9-32.9
	S1191.6,500.7,1189.3,496.3z M47.2,537.4l-13.9-4.6l17-2.3L47.2,537.4z M52.4,517.4H41.8c0,0,3.9-2.1,8.5-4.5
	c4.6-2.4,11.8-4.5,11.8-4.5L52.4,517.4z M119.7,538.2c-2.1-0.2-5-0.9-7.8-1.8c5.9-7.5,10.1-15.6,10.1-15.6l0.3,7.7l6.7,8.5
	C129,536.9,125.9,538.7,119.7,538.2z M242,613.8c-39.8,0-72.1-32.3-72.1-72.1c0-39.8,32.3-72.1,72.1-72.1s72.1,32.3,72.1,72.1
	C314.1,581.6,281.8,613.8,242,613.8z M489,317.9c-0.5,6.4,0.3,16.4-13.9,17.5c-14.1,1-81.5,0.8-101.5,2.6s-61.2,3.7-69.9,0
	c-7.7-3.3-11.3-10.8-8.7-22.6c2.6-11.8,10.8-24.4,23.9-33.4c13.1-9,53.2-26.5,77.1-31.9c23.9-5.4,56.3-9.8,69.6-9.5
	c13.4,0.3,19.5,1.5,21.1,5.9c1.5,4.4,2.3,12.6,2.3,12.6C489.5,266.8,489.5,311.5,489,317.9z M756,336.4c-10,1-210.2,4.5-218.2,2.9
	c-8-1.6-13.4-3.1-14.9-13.2c-1.5-10-1.9-67.7,0-74.3c3.9-13.1,18.5-12.7,26.5-13.1c12.3-0.6,79.9-1.3,103.6,1.8s54.7,6.7,69.6,16.7
	c14.9,10,39.1,43.7,43.2,56C769.9,325.7,766,335.4,756,336.4z M1006.2,613.8c-39.8,0-72.1-32.3-72.1-72.1
	c0-39.8,32.3-72.1,72.1-72.1c39.8,0,72.1,32.3,72.1,72.1C1078.3,581.6,1046,613.8,1006.2,613.8z M1151.5,507.6c0,0-0.4-4.2-1.1-9.8
	l13.7,9.8H1151.5z"/>
</svg>
