<?xml version="1.0" encoding="UTF-8" standalone="no"?>
<svg
   xmlns:dc="http://purl.org/dc/elements/1.1/"
   xmlns:cc="http://creativecommons.org/ns#"
   xmlns:rdf="http://www.w3.org/1999/02/22-rdf-syntax-ns#"
   xmlns:svg="http://www.w3.org/2000/svg"
   xmlns="http://www.w3.org/2000/svg"
   id="elipse"
   width="782"
   height="882.22833"
   viewBox="0 0 782 882.22833"
   version="1.1">
  <metadata
     id="metadata29">
    <rdf:RDF>
      <cc:Work
         rdf:about="">
        <dc:format>image/svg+xml</dc:format>
        <dc:type
           rdf:resource="http://purl.org/dc/dcmitype/StillImage" />
        <dc:title></dc:title>
      </cc:Work>
    </rdf:RDF>
  </metadata>
  <defs
     id="defs4">
    <style
       id="style2">
      .cls-1 {
        fill: #ffa000;
      }

      .cls-2 {
        opacity: 0.38;
      }

      .cls-3, .cls-8 {
        fill: none;
      }

      .cls-3 {
        stroke: #fff;
        stroke-width: 10.2px;
      }

      .cls-4 {
        fill: #bdbdbd;
      }

      .cls-5 {
        fill: #b1b0b0;
      }

      .cls-6 {
        fill: #fff;
      }

      .cls-11, .cls-6, .cls-8, .cls-9 {
        fill-rule: evenodd;
      }

      .cls-7, .cls-9 {
        fill: #cfcbca;
      }

      .cls-8 {
        stroke: #cfcbca;
        stroke-width: 1.96px;
      }

      .cls-10 {
        font-size: 125px;
        font-family: Aller;
      }

      .cls-10, .cls-11 {
        fill: #8bc34a;
      }
    </style>
  </defs>
  <circle
     style="fill:#ffa000"
     class="cls-1"
     cx="391"
     cy="491.22833"
     r="391"
     id="circle6" />
  <circle
     style="fill:none;stroke:#ffffff;stroke-width:10.19999981px"
     id="Ellipse_1_copy"
     data-name="Ellipse 1 copy"
     class="cls-3"
     cx="390.5"
     cy="490.72833"
     r="350.5" />
  <path
     id="path23"
     d="M 316.31836,321.00763 5.55078,556.54669 A 391,391 0 0 0 327.05859,876.50958 L 509.71094,715.47442 485.2793,696.73614 318.9668,694.61895 Z"
     style="opacity:0.1;fill:#1a1a1a;stroke:none;stroke-width:1px;stroke-linecap:butt;stroke-linejoin:miter;stroke-opacity:1" />
  <rect
     style="fill:#bdbdbd"
     id="Rounded_Rectangle_1"
     data-name="Rounded Rectangle 1"
     class="cls-4"
     x="301"
     y="351.22833"
     width="171"
     height="148"
     rx="10"
     ry="10" />
  <rect
     style="fill:#b1b0b0"
     id="Rounded_Rectangle_2"
     data-name="Rounded Rectangle 2"
     class="cls-5"
     x="301"
     y="352.22833"
     width="85"
     height="153"
     rx="10"
     ry="10" />
  <path
     style="fill:#ffffff;fill-rule:evenodd"
     id="Forma_1"
     data-name="Forma 1"
     class="cls-6"
     d="m 606.352,269.62833 a 12.034,12.034 0 0 0 -17.008,0.241 c -9.917,10.194 -59.832,63.366 -68.583,109.04 -6.517,34.021 5.9,72.1 17.915,108.92 8.457,25.93 16.447,50.422 16.447,69.884 0,16.968 -7.227,26.125 -14.027,26.125 -6.1,0 -12.532,-7.941 -12.532,-23.12 0,-18.722 0.063,-73.115 -43.534,-80.335 v -127.011 c 0,-6.638 -4.884,-11.269 -11.526,-11.269 H 457.97 v -12.775 c 0,-6.638 -4.884,-11.269 -11.526,-11.269 h -121.77 c -6.642,0 -12.528,4.631 -12.528,11.269 v 12.771 h -13.03 c -6.641,0 -12.527,4.631 -12.527,11.269 v 311.775 h -25.056 c -6.642,0 -12.527,4.63 -12.527,11.268 v 27.046 c 0,6.638 5.885,12.771 12.527,12.771 h 249.555 c 6.642,0 11.526,-6.133 11.526,-12.771 v -27.046 c 0,-6.638 -4.884,-11.268 -11.526,-11.268 H 485.03 v -160.154 c 9.021,3.359 19.481,15.049 19.481,55.731 0,32.4 18.961,47.159 36.46,47.159 18.924,0 38.143,-17.229 38.143,-50.164 0,-23.28 -8.533,-49.537 -17.6,-77.336 -6.248,-19.154 -12.6,-38.675 -16,-57.071 19.2,-4.135 31.981,-13.1 38.024,-26.743 11.66,-26.326 -7.865,-58.379 -13.094,-66.206 a 357.31,357.31 0 0 1 36.145,-43.731 12.016,12.016 0 0 0 -0.237,-17 z m -148.382,197.183 a 12.023,12.023 0 0 1 -12.027,12.02 h -121.77 a 12.024,12.024 0 0 1 -12.027,-12.02 v -85.643 a 12.024,12.024 0 0 1 12.027,-12.02 h 121.77 a 12.023,12.023 0 0 1 12.027,12.02 z m 103.572,-79.952 c -2.556,5.739 -8.774,9.877 -18.507,12.364 a 81.912,81.912 0 0 1 1.35,-15.8 c 1.72,-8.971 5.894,-19.2 11.649,-29.868 4.973,10.112 9.66,23.973 5.508,33.304 z" />
  <rect
     style="fill:#cfcbca"
     class="cls-7"
     x="286"
     y="660.22833"
     width="199"
     height="5"
     id="rect14" />
  <rect
     style="fill:#cfcbca"
     id="Rectangle_2_copy"
     data-name="Rectangle 2 copy"
     class="cls-7"
     x="312"
     y="337.22833"
     width="146"
     height="5" />
  <path
     style="fill:none;fill-rule:evenodd;stroke:#cfcbca;stroke-width:1.96000004px"
     class="cls-8"
     d="m 555,355.69633 a 52.542,52.542 0 0 1 15.692,-24.468"
     id="path17" />
  <path
     style="fill:none;fill-rule:evenodd;stroke:#cfcbca;stroke-width:1.96000004px"
     id="Shape_1_copy"
     data-name="Shape 1 copy"
     class="cls-8"
     d="m 546,423.22833 a 43.632,43.632 0 0 1 -3,-24" />
  <path
     style="fill:#cfcbca;fill-rule:evenodd"
     class="cls-9"
     d="m 485,480.22833 h 3 v 26 l -3,-1 z"
     id="path20" />
  <g
     transform="translate(-109,-8.7716697)"
     id="texto">
    <text
       style="font-size:125px;font-family:Aller;fill:#8bc34a"
       id="_"
       data-name="$"
       class="cls-10"
       x="458.20499"
       y="626.99298">$</text>
    <path
       style="fill:#8bc34a;fill-rule:evenodd"
       id="_Save_my_gas"
       data-name="                                     Save my gas"
       class="cls-11"
       d="m 219.55,134.363 a 46.631,46.631 0 0 1 3.266,7.9 c -5.2,3.7 -11,10.088 -13.037,16.243 a 14.807,14.807 0 0 0 1.325,11.932 11.876,11.876 0 0 0 7.812,5.811 c 2.936,0.732 6.1,-0.29 9.368,-2.188 a 26.146,26.146 0 0 0 11.277,-13.617 38.637,38.637 0 0 0 0.762,-21.289 c 4.812,-7.671 8.69,-14.3 9.412,-21.341 a 44.39,44.39 0 0 0 -0.4,-13.595 c -0.509,-2.293 -2.236,-4.118 -4.178,-3.564 -2.688,0.814 -2.247,3.633 -2.025,6.78 a 40.292,40.292 0 0 1 -0.03,6.5 c -0.619,5.535 -3.166,10.823 -5.943,15.815 a 56.558,56.558 0 0 0 -6.514,-11.081 c -3.746,-4.845 -7.434,-7.366 -13.571,-8.151 a 15.088,15.088 0 0 0 -11.7,3.672 c -3.263,2.523 -5.816,5.761 -9.083,9.71 -4.423,5.315 -8.5,-1.8 -10.878,-6.916 -2.3,-5.017 -2.826,-8.559 -3.305,-13.878 -0.257,-2.171 1.393,-3.921 3.376,-3.4 a 29.88,29.88 0 0 1 4.676,1.756 c 1.938,0.872 3.57,1.348 4.595,-0.392 1.123,-1.817 -0.132,-3.849 -2.254,-5.368 a 14.166,14.166 0 0 0 -6.462,-2.43 c -3.43,-0.35 -5.242,0.577 -7.912,2.641 -5.933,4.587 -10.3,10.177 -9.382,18.315 a 32.484,32.484 0 0 0 6.39,16.232 c 3.036,4.131 7.137,7.6 10.9,8.166 a 14.02,14.02 0 0 0 10.731,-3.083 c 3.758,-2.905 7.631,-8.113 10.723,-12.084 1.277,-1.619 3.574,-3.553 5.931,0.313 2.662,4.266 4.48,7.44 6.13,10.591 z m 3.194,33.557 c -3.03,1.394 -6.341,-2.682 -5.474,-6.671 0.822,-3.637 4.156,-8.112 8.934,-11.332 a 22.243,22.243 0 0 1 0.678,12.116 c -0.511,2.608 -1.482,4.622 -4.138,5.887 z m 67.048,-61.407 c 0.872,9.645 0.053,13.089 -1.894,16.3 -2.524,4.237 -6.41,2.092 -8.461,-0.347 A 68.559,68.559 0 0 1 269.37,106.459 c -3.782,-8.191 -7.342,-19.356 -6.23,-25.385 0.65,-3.493 3.68,-4.728 7.343,-4.029 1.577,0.275 3.663,0.7 4.306,-1.507 0.346,-1.188 -0.595,-2.383 -1.514,-3.019 -1.379,-0.954 -4.374,-1.735 -9.151,-0.825 a 23.757,23.757 0 0 0 -7.286,2.572 18.6,18.6 0 0 0 -4.949,3.714 c -3.344,3.261 -5.273,9.88 -4.391,15.385 1.328,8.4 2.546,12.434 5.825,19.19 2.919,6.1 8.316,14.116 14.452,18.021 4.526,2.792 10.6,5.021 16.159,2.683 4.185,-1.727 8.859,-3.864 11.211,-12.569 a 29.524,29.524 0 0 0 0.673,-10.208 16.857,16.857 0 0 0 6.949,6.168 c 2.4,1.251 6.34,1.94 8.751,0.617 4.165,-2.286 5.858,-3.357 6.914,-7.929 1.056,-4.572 0.262,-10.7 -0.139,-15.324 -0.482,-5.3 -2.668,-21.493 -3.907,-26.089 -0.573,-1.824 -1.924,-3.507 -3.858,-2.873 -2.651,0.885 -2.145,3.886 -1.578,7 2,11.448 3.583,20.563 4.191,32.064 0.2,3.741 -1.713,4.933 -2.987,2.352 -4.892,-9.435 -9.237,-19.171 -14.282,-29.664 -1.574,-3.129 -4.507,-11.073 -7.824,-12.96 a 9.181,9.181 0 0 0 -9.249,-0.485 c -3.019,1.514 -4.292,3.353 -2.406,7.309 3.76,7.632 7.05,14.668 10.811,22.3 1.232,5.876 1.996,8.309 2.588,13.545 z m 60.225,-45.127 c 0.787,9.463 1.282,15.693 0.155,25.749 -0.309,3.059 -1.63,5.567 -3.661,6.2 -1.8,0.549 -3.631,-0.76 -5.4,-4.366 -4.781,-9.416 -8.117,-16.439 -13.064,-27 -1.476,-3.183 -4.729,-11.04 -7.97,-12.885 a 9.132,9.132 0 0 0 -9.322,-0.6 c -3.066,1.432 -4.492,3.311 -2.471,7.223 6.285,12.321 12.881,25.46 19.739,38.232 a 18.128,18.128 0 0 0 8.653,8.346 c 3.386,1.522 6.852,1.141 10.942,-0.412 a 11.773,11.773 0 0 0 6.7,-6.291 14.518,14.518 0 0 0 1.215,-3.136 c 2.352,-11.056 1.863,-22.9 0.1,-34.938 a 7.5,7.5 0 0 0 1.958,-0.477 c 4.557,-1.731 6.406,-3.9 9.2,-8.174 a 13.6,13.6 0 0 0 1.746,-5.611 c 0.068,-1.229 -0.058,-3.321 -1.843,-3.445 a 2.744,2.744 0 0 0 -2.845,2.016 19.807,19.807 0 0 1 -1.127,3.37 c -1.465,2.83 -3.66,6.2 -7.843,6.456 a 52.448,52.448 0 0 0 -2.007,-7.394 c -1.065,-2.8 -3.1,-6.044 -6.162,-7.42 a 7.845,7.845 0 0 0 -5.34,0.023 c -3.227,1.36 -5.249,4.134 -4.469,8.651 0.692,4.284 3.22,7.067 7.284,9.669 a 23.455,23.455 0 0 0 5.087,2.48 19.558,19.558 0 0 1 0.745,3.734 z M 348.364,51.05 a 11.016,11.016 0 0 1 -4.968,-5.334 c -0.355,-0.935 -0.727,-2.264 0.047,-2.692 1.007,-0.516 1.83,0.241 2.507,1.321 a 27.661,27.661 0 0 1 2.414,6.705 z m 61.466,29.393 c 8.475,-10.8 10.793,-29.574 10.372,-43.4 -0.1,-1.91 -1.229,-3.815 -3.259,-3.685 -2.789,0.193 -2.807,3.165 -3.037,6.319 -0.71,11.4 -1.409,25.9 -8.674,35.872 a 12.323,12.323 0 0 1 -5.591,4.389 c -2.271,0.707 -4.337,-0.316 -5.953,-2.613 a 36.179,36.179 0 0 1 -4.807,-11.289 6.362,6.362 0 0 0 3.82,-0.2 c 3.24,-0.953 6.593,-4 8.787,-8.556 A 27.069,27.069 0 0 0 404.6,39.6 c -0.407,-3.121 -2.749,-12.328 -7.305,-14.523 -5.165,-2.556 -10.568,-4.019 -16.376,-0.994 a 21.751,21.751 0 0 0 -10.553,14.293 48.384,48.384 0 0 0 -0.12,22.345 c 2.127,8.359 5.684,18.289 13.619,23.622 5.9,3.917 13.993,3.793 20.74,0.4 a 14.415,14.415 0 0 0 5.225,-4.3 z m -14.814,-48.6 c 3.535,4.26 3.562,10.96 2.949,16.663 a 19.665,19.665 0 0 1 -2.7,7.136 8.529,8.529 0 0 1 -4.26,3.534 c -1.787,0.583 -3.456,0.105 -4.013,-2.591 -1.789,-7.542 -1.852,-15.394 1.453,-22.684 0.992,-2.186 4.195,-4.807 6.571,-2.058 z M 497,37.524 c -0.269,6.5 -0.413,13 -0.682,19.5 a 17.2,17.2 0 0 0 2.839,10.876 c 1.493,2.254 3.611,4.636 6.361,4.644 a 3.5,3.5 0 0 0 3,-1.241 c 1.63,-2 4.916,-13.985 5.925,-17.232 0.758,-2.623 1.891,-5.494 2.9,-8.116 2.394,-6.618 6.176,-17.232 9.447,-24.6 1.007,-2.372 2.388,-4.243 4.388,-4.237 a 3.9,3.9 0 0 1 3.741,3.011 c 1.607,5.88 1.468,10.754 1.073,17.5 -0.269,6.374 -0.662,12.748 -0.931,19.247 a 16.867,16.867 0 0 0 3.092,11.009 c 1.619,2.13 4.611,4.763 7.361,4.772 4.75,0.014 6.75,-0.105 9.885,-3.6 3.135,-3.495 5.4,-9.234 7.29,-13.478 2.139,-4.869 8.059,-20.1 9.2,-24.723 0.381,-1.874 0.012,-4 -1.987,-4.381 -2.748,-0.508 -3.756,2.364 -4.765,5.361 -3.783,10.989 -6.808,19.73 -11.839,30.09 -1.634,3.37 -3.885,3.489 -3.751,0.614 0.006,-2.125 0.012,-4.25 0.143,-6.374 0.517,-5.748 1.035,-11.622 1.3,-17.871 0.138,-4.5 0.785,-12 -0.7,-17.5 A 17.7,17.7 0 0 0 545.812,13.532 14.258,14.258 0 0 0 535.08,8.886 c -4.625,-0.014 -8.882,2.349 -11.9,6.715 -2.636,3.867 -6.54,13.731 -8.056,18.976 -0.883,2.872 -2.394,6.493 -3.529,10.115 0.131,-2.125 0.262,-4.249 0.394,-6.5 0.138,-4.5 0.785,-12 -0.7,-17.5 a 17.7,17.7 0 0 0 -4.478,-7.263 14.258,14.258 0 0 0 -10.736,-4.656 c -4.625,-0.014 -8.882,2.349 -11.9,6.715 -2.636,3.867 -6.29,13.731 -8.181,18.976 -1.134,3.121 -2.521,7.242 -3.658,11.364 0.272,-7.374 0.658,-11.123 1.049,-16.5 0.26,-3.5 1.285,-12 -0.831,-15.127 a 9.4,9.4 0 0 0 -7.986,-4.773 c -3.375,-0.01 -5.378,0.984 -5.515,5.359 -0.291,13.874 -1.207,27.746 -1.749,42.119 a 17.2,17.2 0 0 0 2.843,10.883 c 1.493,2.254 3.611,4.636 6.361,4.644 a 3.5,3.5 0 0 0 3,-1.241 c 1.63,-2 4.916,-13.985 5.925,-17.232 0.758,-2.623 1.891,-5.494 2.9,-8.116 2.394,-6.618 6.176,-17.232 9.447,-24.6 1.007,-2.372 2.388,-4.243 4.387,-4.237 a 3.9,3.9 0 0 1 3.742,3.011 c 1.621,5.882 1.482,10.757 1.091,17.506 z m 120.892,22.6 c 1.194,-5.5 2.535,-11.1 4.047,-16.914 0.789,-3.412 3.612,-11.4 2.268,-14.967 a 9.182,9.182 0 0 0 -6.8,-6.286 c -3.289,-0.766 -5.443,-0.165 -6.522,4.082 -1.964,8.15 -2.948,11.906 -4.813,20.2 -1.123,5.13 -11.869,16.541 -16.455,20.49 -2,1.776 -4.685,3.8 -6.894,3.373 -1.472,-0.286 -2.1,-2.317 -1.569,-4.379 2.488,-10.85 4.091,-17.8 7.533,-28.97 1.035,-3.364 3.366,-11.443 2.022,-15.015 a 9.181,9.181 0 0 0 -6.8,-6.286 c -3.289,-0.766 -5.565,-0.189 -6.522,4.082 -3.134,13.525 -6.367,26.9 -10.088,40.825 a 17.837,17.837 0 0 0 1.095,11.418 c 1.043,2.495 4.739,5.758 7.439,6.282 a 17.449,17.449 0 0 0 11.758,-1.538 c 4.693,-2.527 10.737,-8.739 14.951,-13.4 -1.048,5.4 -2.572,13.253 -3.306,17.694 a 22.109,22.109 0 0 0 -7.722,4.359 26.026,26.026 0 0 0 -8.428,13.9 c -0.98,4.394 -1.22,9.568 1.727,14.724 1.981,3.568 7.776,5.2 11.292,2.828 5.861,-3.956 9.455,-10.007 12.036,-17.4 a 153.408,153.408 0 0 0 4.565,-16.3 c 1.738,-7.68 3.46,-15.24 5.182,-22.801 z m -19.35,28.841 c -0.106,7.11 -1.634,14.326 -4.012,18.7 -2.207,4.155 -4.364,4.118 -5.106,-1.246 a 20.931,20.931 0 0 1 0.863,-7.727 c 0.79,-2.77 4.533,-8.282 8.251,-9.725 z m 113.638,6.044 c 2.335,-5.119 4.834,-10.3 7.547,-15.669 1.5,-3.167 5.951,-10.369 5.4,-14.145 a 9.183,9.183 0 0 0 -5.312,-7.588 c -3.052,-1.447 -5.284,-1.318 -7.241,2.6 -3.6,7.433 -6.725,14.389 -10.31,22.1 -4.091,4.773 -5.423,6.922 -9.349,10.678 -7.064,6.625 -10.282,8.1 -14.008,8.54 -3.448,0.424 -6.088,-2.615 -5.165,-6.98 a 73.783,73.783 0 0 1 6.417,-17.788 c 3.962,-7.957 9.255,-16.16 16.169,-20.537 2.972,-1.852 6.056,0.153 7.7,3.306 0.754,1.412 1.7,3.317 3.839,2.465 1.149,-0.459 1.512,-1.936 1.447,-3.052 -0.1,-1.674 -1.326,-4.515 -4.984,-7.719 a 23.763,23.763 0 0 0 -6.512,-4.158 18.6,18.6 0 0 0 -5.974,-1.614 c -4.628,-0.628 -11.032,1.928 -14.827,6.011 -5.8,6.216 -8.346,9.612 -11.536,16.4 -3.124,6 -6,15.244 -5.3,22.483 0.587,5.286 2.567,11.442 7.834,14.385 3.937,2.236 8.613,4.653 16.922,1.147 a 37.144,37.144 0 0 0 9.739,-6.836 c -1.825,4.249 -3.75,8.729 -5.115,12.224 a 22.113,22.113 0 0 0 -8.472,2.619 26.03,26.03 0 0 0 -11.188,11.792 c -1.891,4.086 -3.225,9.091 -1.44,14.755 1.178,3.908 6.494,6.736 10.435,5.163 6.567,-2.621 11.365,-7.771 15.458,-14.448 a 153.424,153.424 0 0 0 7.924,-14.963 c 3.322,-7.126 6.613,-14.148 9.902,-21.171 z m -24.921,24.124 c -1.615,6.926 -4.641,13.653 -7.894,17.425 -3.039,3.592 -5.14,3.1 -4.725,-2.3 a 20.911,20.911 0 0 1 2.485,-7.368 c 1.364,-2.545 6.194,-7.136 10.134,-7.757 z m 61.38,3.923 c -7.955,5.523 -11.354,6.512 -15.105,6.4 -4.93,-0.1 -4.985,-4.539 -3.878,-7.528 a 68.552,68.552 0 0 1 8.945,-16.66 c 5.253,-7.335 13.2,-15.946 18.993,-17.957 3.358,-1.161 5.929,0.863 7.131,4.394 0.539,1.507 1.2,3.53 3.437,3 1.2,-0.286 1.779,-1.694 1.877,-2.808 0.149,-1.671 -0.652,-4.66 -3.8,-8.364 A 23.769,23.769 0 0 0 760.403,78.469 18.6,18.6 0 0 0 754.726,76 c -4.487,-1.3 -11.2,0.3 -15.546,3.783 -6.645,5.3 -9.554,8.356 -13.808,14.545 -3.86,5.55 -8.164,14.2 -8.529,21.468 -0.191,5.315 0.87,11.695 5.65,15.375 3.569,2.786 7.736,5.794 16.468,3.539 a 29.555,29.555 0 0 0 9.207,-4.458 16.864,16.864 0 0 0 -1.93,9.089 c 0.1,2.7 1.446,6.471 3.788,7.913 4.044,2.492 5.812,3.435 10.309,2.095 4.497,-1.34 9.429,-5.056 13.255,-7.691 4.367,-3.036 17.369,-12.938 20.753,-16.285 1.3,-1.4 2.1,-3.406 0.593,-4.774 -2.079,-1.869 -4.439,0.054 -6.864,2.084 -8.964,7.4 -16.108,13.274 -25.808,19.484 -3.154,2.021 -5.136,0.948 -3.521,-1.435 5.787,-8.915 12.106,-17.5 18.737,-27.072 1.942,-2.914 7.4,-9.389 7.4,-13.205 a 9.182,9.182 0 0 0 -4.147,-8.282 c -2.808,-1.877 -5.036,-2.075 -7.544,1.519 -4.778,7.04 -9.27,13.376 -14.048,20.416 -4.505,3.98 -6.241,5.846 -10.502,8.948 z m 49.85,6.365 c -1.607,5.261 -4.154,13.125 -5.916,18.583 -6.553,1.036 -9.423,0.84 -14.453,4.99 -3.9,3.129 -5.734,10.285 -1.567,14.691 a 14.721,14.721 0 0 0 9.283,4.783 c 4.57,0.264 9.475,-1.915 13.338,-5.394 a 26.521,26.521 0 0 0 5.284,-7.3 21.424,21.424 0 0 0 1.384,-3.367 36.573,36.573 0 0 0 16.8,-3.932 c 1.694,-0.733 3.011,-2.4 2.061,-4.425 -1.265,-2.432 -3.816,-1.42 -6.893,-0.347 a 26.545,26.545 0 0 1 -9.631,2.111 c 0.439,-1.565 0.781,-3.207 1.22,-4.771 1.369,-5.768 3.839,-16.559 5,-21.056 1.3,-4.869 4.622,-6.862 5.335,-11.4 0.45,-2.989 -0.515,-4.389 -2.162,-5.53 -1.451,-0.987 -3.682,-1.792 -7.209,-0.755 -4.229,1.12 -6.057,5.25 -8.134,10.3 a 34.919,34.919 0 0 1 -2.04,4.6 c -2.567,1.637 -4.493,2.664 -7.137,4.4 -1.652,1.084 -2.814,2.556 -1.808,4.307 0.909,1.673 2.06,1.626 4.182,0.754 1.291,-0.411 1.874,-0.746 3.063,-1.242 z m -15.676,27.917 c 1.668,-1.709 5.432,-2.24 7.461,-2.39 -0.666,2.659 -1.235,5.4 -3.564,7.539 -1.435,1.414 -4.105,2.173 -5.659,0.308 -1.513,-1.513 0.192,-3.671 1.762,-5.457 z" />
  </g>
</svg>
