<?xml version="1.0" encoding="UTF-8" standalone="no"?>
<svg
   xmlns:dc="http://purl.org/dc/elements/1.1/"
   xmlns:cc="http://creativecommons.org/ns#"
   xmlns:rdf="http://www.w3.org/1999/02/22-rdf-syntax-ns#"
   xmlns:svg="http://www.w3.org/2000/svg"
   xmlns="http://www.w3.org/2000/svg"
   id="elipse"
   width="782"
   height="782"
   viewBox="0 0 782 782"
   version="1.1">
  <metadata
     id="metadata29">
    <rdf:RDF>
      <cc:Work
         rdf:about="">
        <dc:format>image/svg+xml</dc:format>
        <dc:type
           rdf:resource="http://purl.org/dc/dcmitype/StillImage" />
        <dc:title></dc:title>
      </cc:Work>
    </rdf:RDF>
  </metadata>
  <defs
     id="defs4">
    <style
       id="style2">
      .cls-1 {
        fill: #ffa000;
      }

      .cls-2 {
        opacity: 0.38;
      }

      .cls-3, .cls-8 {
        fill: none;
      }

      .cls-3 {
        stroke: #fff;
        stroke-width: 10.2px;
      }

      .cls-4 {
        fill: #bdbdbd;
      }

      .cls-5 {
        fill: #b1b0b0;
      }

      .cls-6 {
        fill: #fff;
      }

      .cls-11, .cls-6, .cls-8, .cls-9 {
        fill-rule: evenodd;
      }

      .cls-7, .cls-9 {
        fill: #cfcbca;
      }

      .cls-8 {
        stroke: #cfcbca;
        stroke-width: 1.96px;
      }

      .cls-10 {
        font-size: 125px;
        font-family: Aller;
      }

      .cls-10, .cls-11 {
        fill: #8bc34a;
      }
    </style>
  </defs>
  <circle
     style="fill:#ffa000"
     class="cls-1"
     cx="391"
     cy="391"
     r="391"
     id="circle6" />
  <circle
     style="fill:none;stroke:#ffffff;stroke-width:10.19999981px"
     id="Ellipse_1_copy"
     data-name="Ellipse 1 copy"
     class="cls-3"
     cx="390.5"
     cy="390.5"
     r="350.5" />
  <path
     id="path23"
     d="M 316.31836,220.7793 5.55078,456.31836 A 391,391 0 0 0 327.05859,776.28125 L 509.71094,615.24609 485.2793,596.50781 318.9668,594.39062 Z"
     style="opacity:0.1;fill:#1a1a1a;stroke:none;stroke-width:1px;stroke-linecap:butt;stroke-linejoin:miter;stroke-opacity:1" />
  <rect
     style="fill:#bdbdbd"
     id="Rounded_Rectangle_1"
     data-name="Rounded Rectangle 1"
     class="cls-4"
     x="301"
     y="251"
     width="171"
     height="148"
     rx="10"
     ry="10" />
  <rect
     style="fill:#b1b0b0"
     id="Rounded_Rectangle_2"
     data-name="Rounded Rectangle 2"
     class="cls-5"
     x="301"
     y="252"
     width="85"
     height="153"
     rx="10"
     ry="10" />
  <path
     style="fill:#ffffff;fill-rule:evenodd"
     id="Forma_1"
     data-name="Forma 1"
     class="cls-6"
     d="m 606.352,169.4 a 12.034,12.034 0 0 0 -17.008,0.241 c -9.917,10.194 -59.832,63.366 -68.583,109.04 -6.517,34.021 5.9,72.1 17.915,108.92 8.457,25.93 16.447,50.422 16.447,69.884 0,16.968 -7.227,26.125 -14.027,26.125 -6.1,0 -12.532,-7.941 -12.532,-23.12 0,-18.722 0.063,-73.115 -43.534,-80.335 V 253.144 c 0,-6.638 -4.884,-11.269 -11.526,-11.269 H 457.97 V 229.1 c 0,-6.638 -4.884,-11.269 -11.526,-11.269 h -121.77 c -6.642,0 -12.528,4.631 -12.528,11.269 v 12.771 h -13.03 c -6.641,0 -12.527,4.631 -12.527,11.269 v 311.775 h -25.056 c -6.642,0 -12.527,4.63 -12.527,11.268 v 27.046 c 0,6.638 5.885,12.771 12.527,12.771 h 249.555 c 6.642,0 11.526,-6.133 11.526,-12.771 v -27.046 c 0,-6.638 -4.884,-11.268 -11.526,-11.268 H 485.03 V 404.761 c 9.021,3.359 19.481,15.049 19.481,55.731 0,32.4 18.961,47.159 36.46,47.159 18.924,0 38.143,-17.229 38.143,-50.164 0,-23.28 -8.533,-49.537 -17.6,-77.336 -6.248,-19.154 -12.6,-38.675 -16,-57.071 19.2,-4.135 31.981,-13.1 38.024,-26.743 11.66,-26.326 -7.865,-58.379 -13.094,-66.206 a 357.31,357.31 0 0 1 36.145,-43.731 12.016,12.016 0 0 0 -0.237,-17 z M 457.97,366.583 a 12.023,12.023 0 0 1 -12.027,12.02 h -121.77 a 12.024,12.024 0 0 1 -12.027,-12.02 V 280.94 a 12.024,12.024 0 0 1 12.027,-12.02 h 121.77 a 12.023,12.023 0 0 1 12.027,12.02 z m 103.572,-79.952 c -2.556,5.739 -8.774,9.877 -18.507,12.364 a 81.912,81.912 0 0 1 1.35,-15.8 c 1.72,-8.971 5.894,-19.2 11.649,-29.868 4.973,10.112 9.66,23.973 5.508,33.304 z" />
  <rect
     style="fill:#cfcbca"
     class="cls-7"
     x="286"
     y="560"
     width="199"
     height="5"
     id="rect14" />
  <rect
     style="fill:#cfcbca"
     id="Rectangle_2_copy"
     data-name="Rectangle 2 copy"
     class="cls-7"
     x="312"
     y="237"
     width="146"
     height="5" />
  <path
     style="fill:none;fill-rule:evenodd;stroke:#cfcbca;stroke-width:1.96000004px"
     class="cls-8"
     d="M 555,255.468 A 52.542,52.542 0 0 1 570.692,231"
     id="path17" />
  <path
     style="fill:none;fill-rule:evenodd;stroke:#cfcbca;stroke-width:1.96000004px"
     id="Shape_1_copy"
     data-name="Shape 1 copy"
     class="cls-8"
     d="m 546,323 a 43.632,43.632 0 0 1 -3,-24" />
  <path
     style="fill:#cfcbca;fill-rule:evenodd"
     class="cls-9"
     d="m 485,380 h 3 v 26 l -3,-1 z"
     id="path20" />
  <g
     transform="translate(-109,-109)"
     id="texto">
    <text
       style="font-size:125px;font-family:Aller;fill:#8bc34a"
       id="_"
       data-name="$"
       class="cls-10"
       x="458.20499"
       y="626.99298">$</text>
  </g>
</svg>
