<?xml version="1.0" encoding="UTF-8" standalone="no"?>
<svg
   xmlns:dc="http://purl.org/dc/elements/1.1/"
   xmlns:cc="http://creativecommons.org/ns#"
   xmlns:rdf="http://www.w3.org/1999/02/22-rdf-syntax-ns#"
   xmlns:svg="http://www.w3.org/2000/svg"
   xmlns="http://www.w3.org/2000/svg"
   id="elipse"
   width="1000"
   height="1000"
   viewBox="0 0 1000 1000"
   version="1.1">
  <metadata
     id="metadata29">
    <rdf:RDF>
      <cc:Work
         rdf:about="">
        <dc:format>image/svg+xml</dc:format>
        <dc:type
           rdf:resource="http://purl.org/dc/dcmitype/StillImage" />
        <dc:title></dc:title>
      </cc:Work>
    </rdf:RDF>
  </metadata>
  <defs
     id="defs4">
    <style
       id="style2">
      .cls-1 {
        fill: #ffa000;
      }

      .cls-2 {
        opacity: 0.38;
      }

      .cls-3, .cls-8 {
        fill: none;
      }

      .cls-3 {
        stroke: #fff;
        stroke-width: 10.2px;
      }

      .cls-4 {
        fill: #bdbdbd;
      }

      .cls-5 {
        fill: #b1b0b0;
      }

      .cls-6 {
        fill: #fff;
      }

      .cls-11, .cls-6, .cls-8, .cls-9 {
        fill-rule: evenodd;
      }

      .cls-7, .cls-9 {
        fill: #cfcbca;
      }

      .cls-8 {
        stroke: #cfcbca;
        stroke-width: 1.96px;
      }

      .cls-10 {
        font-size: 125px;
        font-family: Aller;
      }

      .cls-10, .cls-11 {
        fill: #8bc34a;
      }
    </style>
  </defs>
  <circle
     class="cls-1"
     cx="500"
     cy="500"
     r="391"
     id="circle6" />
  <circle
     id="Ellipse_1_copy"
     data-name="Ellipse 1 copy"
     class="cls-3"
     cx="499.5"
     cy="499.5"
     r="350.5" />
  <path
     id="path23"
     d="M 425.31836 329.7793 L 114.55078 565.31836 A 391 391 0 0 0 436.05859 885.28125 L 618.71094 724.24609 L 594.2793 705.50781 L 427.9668 703.39062 L 425.31836 329.7793 z "
     style="fill:#1a1a1a;stroke:none;stroke-width:1px;stroke-linecap:butt;stroke-linejoin:miter;stroke-opacity:1;opacity:0.1" />
  <rect
     id="Rounded_Rectangle_1"
     data-name="Rounded Rectangle 1"
     class="cls-4"
     x="410"
     y="360"
     width="171"
     height="148"
     rx="10"
     ry="10" />
  <rect
     id="Rounded_Rectangle_2"
     data-name="Rounded Rectangle 2"
     class="cls-5"
     x="410"
     y="361"
     width="85"
     height="153"
     rx="10"
     ry="10" />
  <path
     id="Forma_1"
     data-name="Forma 1"
     class="cls-6"
     d="M715.352,278.4a12.034,12.034,0,0,0-17.008.241c-9.917,10.194-59.832,63.366-68.583,109.04-6.517,34.021,5.9,72.1,17.915,108.92,8.457,25.93,16.447,50.422,16.447,69.884,0,16.968-7.227,26.125-14.027,26.125-6.1,0-12.532-7.941-12.532-23.12,0-18.722.063-73.115-43.534-80.335V362.144c0-6.638-4.884-11.269-11.526-11.269H566.97V338.1c0-6.638-4.884-11.269-11.526-11.269H433.674c-6.642,0-12.528,4.631-12.528,11.269v12.771h-13.03c-6.641,0-12.527,4.631-12.527,11.269V673.915H370.533c-6.642,0-12.527,4.63-12.527,11.268v27.046c0,6.638,5.885,12.771,12.527,12.771H620.088c6.642,0,11.526-6.133,11.526-12.771V685.183c0-6.638-4.884-11.268-11.526-11.268H594.03V513.761c9.021,3.359,19.481,15.049,19.481,55.731,0,32.4,18.961,47.159,36.46,47.159,18.924,0,38.143-17.229,38.143-50.164,0-23.28-8.533-49.537-17.6-77.336-6.248-19.154-12.6-38.675-16-57.071,19.2-4.135,31.981-13.1,38.024-26.743,11.66-26.326-7.865-58.379-13.094-66.206A357.31,357.31,0,0,1,715.589,295.4,12.016,12.016,0,0,0,715.352,278.4ZM566.97,475.583a12.023,12.023,0,0,1-12.027,12.02H433.173a12.024,12.024,0,0,1-12.027-12.02V389.94a12.024,12.024,0,0,1,12.027-12.02h121.77a12.023,12.023,0,0,1,12.027,12.02v85.643Zm103.572-79.952c-2.556,5.739-8.774,9.877-18.507,12.364a81.912,81.912,0,0,1,1.35-15.8c1.72-8.971,5.894-19.2,11.649-29.868C670.007,372.439,674.694,386.3,670.542,395.631Z" />
  <rect
     class="cls-7"
     x="395"
     y="669"
     width="199"
     height="5"
     id="rect14" />
  <rect
     id="Rectangle_2_copy"
     data-name="Rectangle 2 copy"
     class="cls-7"
     x="421"
     y="346"
     width="146"
     height="5" />
  <path
     class="cls-8"
     d="M664,364.468A52.542,52.542,0,0,1,679.692,340"
     id="path17" />
  <path
     id="Shape_1_copy"
     data-name="Shape 1 copy"
     class="cls-8"
     d="M655,432a43.632,43.632,0,0,1-3-24" />
  <path
     class="cls-9"
     d="M594,489h3v26l-3-1V489Z"
     id="path20" />
  <g
     id="texto">
    <text
       id="_"
       data-name="$"
       class="cls-10"
       x="458.205"
       y="626.993">$</text>
    <path
       id="_Save_my_gas"
       data-name="                                     Save my gas"
       class="cls-11"
       d="M219.55,134.363a46.631,46.631,0,0,1,3.266,7.9c-5.2,3.7-11,10.088-13.037,16.243a14.807,14.807,0,0,0,1.325,11.932,11.876,11.876,0,0,0,7.812,5.811c2.936,0.732,6.1-.29,9.368-2.188a26.146,26.146,0,0,0,11.277-13.617,38.637,38.637,0,0,0,.762-21.289c4.812-7.671,8.69-14.3,9.412-21.341a44.39,44.39,0,0,0-.4-13.595c-0.509-2.293-2.236-4.118-4.178-3.564-2.688.814-2.247,3.633-2.025,6.78a40.292,40.292,0,0,1-.03,6.5c-0.619,5.535-3.166,10.823-5.943,15.815a56.558,56.558,0,0,0-6.514-11.081c-3.746-4.845-7.434-7.366-13.571-8.151a15.088,15.088,0,0,0-11.7,3.672c-3.263,2.523-5.816,5.761-9.083,9.71-4.423,5.315-8.5-1.8-10.878-6.916-2.3-5.017-2.826-8.559-3.305-13.878-0.257-2.171,1.393-3.921,3.376-3.4a29.88,29.88,0,0,1,4.676,1.756c1.938,0.872,3.57,1.348,4.595-.392,1.123-1.817-.132-3.849-2.254-5.368a14.166,14.166,0,0,0-6.462-2.43c-3.43-.35-5.242.577-7.912,2.641-5.933,4.587-10.3,10.177-9.382,18.315a32.484,32.484,0,0,0,6.39,16.232c3.036,4.131,7.137,7.6,10.9,8.166a14.02,14.02,0,0,0,10.731-3.083c3.758-2.905,7.631-8.113,10.723-12.084,1.277-1.619,3.574-3.553,5.931.313C216.082,128.038,217.9,131.212,219.55,134.363Zm3.194,33.557c-3.03,1.394-6.341-2.682-5.474-6.671,0.822-3.637,4.156-8.112,8.934-11.332a22.243,22.243,0,0,1,.678,12.116C226.371,164.641,225.4,166.655,222.744,167.92Zm67.048-61.407c0.872,9.645.053,13.089-1.894,16.3-2.524,4.237-6.41,2.092-8.461-.347a68.559,68.559,0,0,1-10.067-16.007c-3.782-8.191-7.342-19.356-6.23-25.385,0.65-3.493,3.68-4.728,7.343-4.029,1.577,0.275,3.663.7,4.306-1.507,0.346-1.188-.595-2.383-1.514-3.019-1.379-.954-4.374-1.735-9.151-0.825a23.757,23.757,0,0,0-7.286,2.572,18.6,18.6,0,0,0-4.949,3.714c-3.344,3.261-5.273,9.88-4.391,15.385,1.328,8.4,2.546,12.434,5.825,19.19,2.919,6.1,8.316,14.116,14.452,18.021,4.526,2.792,10.6,5.021,16.159,2.683,4.185-1.727,8.859-3.864,11.211-12.569a29.524,29.524,0,0,0,.673-10.208,16.857,16.857,0,0,0,6.949,6.168c2.4,1.251,6.34,1.94,8.751.617,4.165-2.286,5.858-3.357,6.914-7.929s0.262-10.7-.139-15.324c-0.482-5.3-2.668-21.493-3.907-26.089-0.573-1.824-1.924-3.507-3.858-2.873-2.651.885-2.145,3.886-1.578,7,2,11.448,3.583,20.563,4.191,32.064,0.2,3.741-1.713,4.933-2.987,2.352-4.892-9.435-9.237-19.171-14.282-29.664-1.574-3.129-4.507-11.073-7.824-12.96a9.181,9.181,0,0,0-9.249-.485c-3.019,1.514-4.292,3.353-2.406,7.309,3.76,7.632,7.05,14.668,10.811,22.3C288.436,98.844,289.2,101.277,289.792,106.513Zm60.225-45.127c0.787,9.463,1.282,15.693.155,25.749-0.309,3.059-1.63,5.567-3.661,6.2-1.8.549-3.631-.76-5.4-4.366-4.781-9.416-8.117-16.439-13.064-27-1.476-3.183-4.729-11.04-7.97-12.885a9.132,9.132,0,0,0-9.322-.6c-3.066,1.432-4.492,3.311-2.471,7.223,6.285,12.321,12.881,25.46,19.739,38.232a18.128,18.128,0,0,0,8.653,8.346c3.386,1.522,6.852,1.141,10.942-.412a11.773,11.773,0,0,0,6.7-6.291,14.518,14.518,0,0,0,1.215-3.136c2.352-11.056,1.863-22.9.1-34.938a7.5,7.5,0,0,0,1.958-.477c4.557-1.731,6.406-3.9,9.2-8.174a13.6,13.6,0,0,0,1.746-5.611c0.068-1.229-.058-3.321-1.843-3.445a2.744,2.744,0,0,0-2.845,2.016,19.807,19.807,0,0,1-1.127,3.37c-1.465,2.83-3.66,6.2-7.843,6.456a52.448,52.448,0,0,0-2.007-7.394c-1.065-2.8-3.1-6.044-6.162-7.42a7.845,7.845,0,0,0-5.34.023c-3.227,1.36-5.249,4.134-4.469,8.651,0.692,4.284,3.22,7.067,7.284,9.669a23.455,23.455,0,0,0,5.087,2.48A19.558,19.558,0,0,1,350.017,61.386ZM348.364,51.05a11.016,11.016,0,0,1-4.968-5.334c-0.355-.935-0.727-2.264.047-2.692,1.007-.516,1.83.241,2.507,1.321A27.661,27.661,0,0,1,348.364,51.05ZM409.83,80.443c8.475-10.8,10.793-29.574,10.372-43.4-0.1-1.91-1.229-3.815-3.259-3.685-2.789.193-2.807,3.165-3.037,6.319-0.71,11.4-1.409,25.9-8.674,35.872a12.323,12.323,0,0,1-5.591,4.389c-2.271.707-4.337-.316-5.953-2.613a36.179,36.179,0,0,1-4.807-11.289,6.362,6.362,0,0,0,3.82-.2c3.24-.953,6.593-4,8.787-8.556A27.069,27.069,0,0,0,404.6,39.6c-0.407-3.121-2.749-12.328-7.305-14.523-5.165-2.556-10.568-4.019-16.376-.994a21.751,21.751,0,0,0-10.553,14.293,48.384,48.384,0,0,0-.12,22.345c2.127,8.359,5.684,18.289,13.619,23.622,5.9,3.917,13.993,3.793,20.74.4A14.415,14.415,0,0,0,409.83,80.443Zm-14.814-48.6c3.535,4.26,3.562,10.96,2.949,16.663a19.665,19.665,0,0,1-2.7,7.136,8.529,8.529,0,0,1-4.26,3.534c-1.787.583-3.456,0.105-4.013-2.591-1.789-7.542-1.852-15.394,1.453-22.684C389.437,31.715,392.64,29.094,395.016,31.843ZM497,37.524c-0.269,6.5-.413,13-0.682,19.5A17.2,17.2,0,0,0,499.157,67.9c1.493,2.254,3.611,4.636,6.361,4.644a3.5,3.5,0,0,0,3-1.241c1.63-2,4.916-13.985,5.925-17.232,0.758-2.623,1.891-5.494,2.9-8.116,2.394-6.618,6.176-17.232,9.447-24.6,1.007-2.372,2.388-4.243,4.388-4.237a3.9,3.9,0,0,1,3.741,3.011c1.607,5.88,1.468,10.754,1.073,17.5-0.269,6.374-.662,12.748-0.931,19.247a16.867,16.867,0,0,0,3.092,11.009c1.619,2.13,4.611,4.763,7.361,4.772,4.75,0.014,6.75-.105,9.885-3.6s5.4-9.234,7.29-13.478c2.139-4.869,8.059-20.1,9.2-24.723,0.381-1.874.012-4-1.987-4.381-2.748-.508-3.756,2.364-4.765,5.361-3.783,10.989-6.808,19.73-11.839,30.09-1.634,3.37-3.885,3.489-3.751.614,0.006-2.125.012-4.25,0.143-6.374,0.517-5.748,1.035-11.622,1.3-17.871,0.138-4.5.785-12-.7-17.5a17.7,17.7,0,0,0-4.478-7.263A14.258,14.258,0,0,0,535.08,8.886c-4.625-.014-8.882,2.349-11.9,6.715-2.636,3.867-6.54,13.731-8.056,18.976-0.883,2.872-2.394,6.493-3.529,10.115,0.131-2.125.262-4.249,0.394-6.5,0.138-4.5.785-12-.7-17.5a17.7,17.7,0,0,0-4.478-7.263,14.258,14.258,0,0,0-10.736-4.656c-4.625-.014-8.882,2.349-11.9,6.715-2.636,3.867-6.29,13.731-8.181,18.976-1.134,3.121-2.521,7.242-3.658,11.364,0.272-7.374.658-11.123,1.049-16.5,0.26-3.5,1.285-12-.831-15.127a9.4,9.4,0,0,0-7.986-4.773c-3.375-.01-5.378.984-5.515,5.359-0.291,13.874-1.207,27.746-1.749,42.119a17.2,17.2,0,0,0,2.843,10.883c1.493,2.254,3.611,4.636,6.361,4.644a3.5,3.5,0,0,0,3-1.241c1.63-2,4.916-13.985,5.925-17.232,0.758-2.623,1.891-5.494,2.9-8.116,2.394-6.618,6.176-17.232,9.447-24.6,1.007-2.372,2.388-4.243,4.387-4.237a3.9,3.9,0,0,1,3.742,3.011C497.53,25.9,497.391,30.775,497,37.524Zm120.892,22.6c1.194-5.5,2.535-11.1,4.047-16.914,0.789-3.412,3.612-11.4,2.268-14.967a9.182,9.182,0,0,0-6.8-6.286c-3.289-.766-5.443-0.165-6.522,4.082-1.964,8.15-2.948,11.906-4.813,20.2-1.123,5.13-11.869,16.541-16.455,20.49-2,1.776-4.685,3.8-6.894,3.373-1.472-.286-2.1-2.317-1.569-4.379,2.488-10.85,4.091-17.8,7.533-28.97,1.035-3.364,3.366-11.443,2.022-15.015a9.181,9.181,0,0,0-6.8-6.286c-3.289-.766-5.565-0.189-6.522,4.082-3.134,13.525-6.367,26.9-10.088,40.825a17.837,17.837,0,0,0,1.095,11.418c1.043,2.495,4.739,5.758,7.439,6.282a17.449,17.449,0,0,0,11.758-1.538c4.693-2.527,10.737-8.739,14.951-13.4-1.048,5.4-2.572,13.253-3.306,17.694a22.109,22.109,0,0,0-7.722,4.359,26.026,26.026,0,0,0-8.428,13.9c-0.98,4.394-1.22,9.568,1.727,14.724,1.981,3.568,7.776,5.2,11.292,2.828,5.861-3.956,9.455-10.007,12.036-17.4a153.408,153.408,0,0,0,4.565-16.3C614.444,75.246,616.166,67.686,617.888,60.125Zm-19.35,28.841c-0.106,7.11-1.634,14.326-4.012,18.7-2.207,4.155-4.364,4.118-5.106-1.246a20.931,20.931,0,0,1,.863-7.727C591.077,95.922,594.82,90.41,598.538,88.967ZM712.18,95.009c2.335-5.119,4.834-10.3,7.547-15.669,1.5-3.167,5.951-10.369,5.4-14.145a9.183,9.183,0,0,0-5.312-7.588c-3.052-1.447-5.284-1.318-7.241,2.6-3.6,7.433-6.725,14.389-10.31,22.1-4.091,4.773-5.423,6.922-9.349,10.678-7.064,6.625-10.282,8.1-14.008,8.54-3.448.424-6.088-2.615-5.165-6.98a73.783,73.783,0,0,1,6.417-17.788c3.962-7.957,9.255-16.16,16.169-20.537,2.972-1.852,6.056.153,7.7,3.306,0.754,1.412,1.7,3.317,3.839,2.465,1.149-.459,1.512-1.936,1.447-3.052-0.1-1.674-1.326-4.515-4.984-7.719a23.763,23.763,0,0,0-6.512-4.158,18.6,18.6,0,0,0-5.974-1.614c-4.628-.628-11.032,1.928-14.827,6.011-5.8,6.216-8.346,9.612-11.536,16.4-3.124,6-6,15.244-5.3,22.483,0.587,5.286,2.567,11.442,7.834,14.385,3.937,2.236,8.613,4.653,16.922,1.147a37.144,37.144,0,0,0,9.739-6.836c-1.825,4.249-3.75,8.729-5.115,12.224a22.113,22.113,0,0,0-8.472,2.619,26.03,26.03,0,0,0-11.188,11.792c-1.891,4.086-3.225,9.091-1.44,14.755,1.178,3.908,6.494,6.736,10.435,5.163,6.567-2.621,11.365-7.771,15.458-14.448a153.424,153.424,0,0,0,7.924-14.963C705.6,109.054,708.891,102.032,712.18,95.009Zm-24.921,24.124c-1.615,6.926-4.641,13.653-7.894,17.425-3.039,3.592-5.14,3.1-4.725-2.3a20.911,20.911,0,0,1,2.485-7.368C678.489,124.345,683.319,119.754,687.259,119.133Zm61.38,3.923c-7.955,5.523-11.354,6.512-15.105,6.4-4.93-.1-4.985-4.539-3.878-7.528a68.552,68.552,0,0,1,8.945-16.66c5.253-7.335,13.2-15.946,18.993-17.957,3.358-1.161,5.929.863,7.131,4.394,0.539,1.507,1.2,3.53,3.437,3,1.2-.286,1.779-1.694,1.877-2.808,0.149-1.671-.652-4.66-3.8-8.364a23.769,23.769,0,0,0-5.836-5.064A18.6,18.6,0,0,0,754.726,76c-4.487-1.3-11.2.3-15.546,3.783-6.645,5.3-9.554,8.356-13.808,14.545-3.86,5.55-8.164,14.2-8.529,21.468-0.191,5.315.87,11.695,5.65,15.375,3.569,2.786,7.736,5.794,16.468,3.539a29.555,29.555,0,0,0,9.207-4.458,16.864,16.864,0,0,0-1.93,9.089c0.1,2.7,1.446,6.471,3.788,7.913,4.044,2.492,5.812,3.435,10.309,2.095s9.429-5.056,13.255-7.691c4.367-3.036,17.369-12.938,20.753-16.285,1.3-1.4,2.1-3.406.593-4.774-2.079-1.869-4.439.054-6.864,2.084-8.964,7.4-16.108,13.274-25.808,19.484-3.154,2.021-5.136.948-3.521-1.435,5.787-8.915,12.106-17.5,18.737-27.072,1.942-2.914,7.4-9.389,7.4-13.205a9.182,9.182,0,0,0-4.147-8.282c-2.808-1.877-5.036-2.075-7.544,1.519-4.778,7.04-9.27,13.376-14.048,20.416C754.636,118.088,752.9,119.954,748.639,123.056Zm49.85,6.365c-1.607,5.261-4.154,13.125-5.916,18.583-6.553,1.036-9.423.84-14.453,4.99-3.9,3.129-5.734,10.285-1.567,14.691a14.721,14.721,0,0,0,9.283,4.783c4.57,0.264,9.475-1.915,13.338-5.394a26.521,26.521,0,0,0,5.284-7.3,21.424,21.424,0,0,0,1.384-3.367,36.573,36.573,0,0,0,16.8-3.932c1.694-.733,3.011-2.4,2.061-4.425-1.265-2.432-3.816-1.42-6.893-.347a26.545,26.545,0,0,1-9.631,2.111c0.439-1.565.781-3.207,1.22-4.771,1.369-5.768,3.839-16.559,5-21.056,1.3-4.869,4.622-6.862,5.335-11.4,0.45-2.989-.515-4.389-2.162-5.53-1.451-.987-3.682-1.792-7.209-0.755-4.229,1.12-6.057,5.25-8.134,10.3a34.919,34.919,0,0,1-2.04,4.6c-2.567,1.637-4.493,2.664-7.137,4.4-1.652,1.084-2.814,2.556-1.808,4.307,0.909,1.673,2.06,1.626,4.182.754C796.717,130.252,797.3,129.917,798.489,129.421Zm-15.676,27.917c1.668-1.709,5.432-2.24,7.461-2.39-0.666,2.659-1.235,5.4-3.564,7.539-1.435,1.414-4.105,2.173-5.659.308C779.538,161.282,781.243,159.124,782.813,157.338Z" />
    <path
       id="FACECLA_2016"
       data-name="FACECLA 2016"
       class="cls-11"
       d="M352.286,938.881a2.519,2.519,0,0,0-2-.952A31.4,31.4,0,0,0,344.791,939q-0.05-4.3-.781-13.257t-0.733-13.6q0-1.124,2.784-1.123l2.441,0.1q2.783,0,2.783-2.1t-1.05-2.784a5.3,5.3,0,0,0-2.905-.683q-1.855,0-2.881.049-7.08.342-7.08,5.517,1.026,1.563,2.027,28.028t1,35.986q0,6.4,2.881,6.4a3.665,3.665,0,0,0,2.442-.781,2.313,2.313,0,0,0,.927-1.806,5.131,5.131,0,0,0-.146-1.465l0.195-.635q0-5.467-.952-16.309t-0.952-16.259q8.3,0,8.3-3.272A3.209,3.209,0,0,0,352.286,938.881ZM375.7,959.9a27.381,27.381,0,0,1-6.885-1.123,28.121,28.121,0,0,1,1.416-6.543q0.635-2.052.928-3.223t2.515-14.649q2.221-13.476,2.807-14.16-0.048.246-.048,2.954t2.2,25.66q0.829,8.984.976,10.791A18.108,18.108,0,0,1,375.7,959.9Zm4.3-52.93a4.7,4.7,0,0,0-2.978-.879q-3.126,0-5.811,12.891-0.538,2.442-3.223,17.627-6.883,38.427-9.13,41.7,0.488,2,5.322,2,1.464-2.393,2.124-8.716t1.88-8.374a56.491,56.491,0,0,1,6.469.879,14.176,14.176,0,0,1,5.054,1.66V978.8q0,2.589,3.272,2.588t3.271-3.369q0-12.3-2.148-34.766T380,906.777v0.195Zm20.459,18.8a30.091,30.091,0,0,1,.977-8.5q1.952-6.543,9.668-6.543v0.39h1.562v-0.195a2.418,2.418,0,0,0,2.222,1.221,3.98,3.98,0,0,0,2.319-.586,1.914,1.914,0,0,0,.83-1.66,4.009,4.009,0,0,0-2.3-3.54,9.182,9.182,0,0,0-4.687-1.343,17.672,17.672,0,0,0-11.328,3.637,11.844,11.844,0,0,0-4.59,9.791,17.4,17.4,0,0,0,.293,3.125,68.549,68.549,0,0,0-.684,11.621q0,8.1.977,23.1t2.685,18.6a14.68,14.68,0,0,0,4.981,5.884,11.547,11.547,0,0,0,6.64,2.27q6.3,0,9.18-3.271a6.984,6.984,0,0,0,1.758-4.932v-1.318a10,10,0,0,1-3.174.488q-2.442,2.881-7.08,2.881t-6.885-3.272q-1.271-1.854-2.612-15.381t-1.343-18.6l0.879-6.983Zm40.967,18.115a3.3,3.3,0,0,0,.732-2.1,2.624,2.624,0,0,0-.9-2,2.952,2.952,0,0,0-2.051-.83,13.621,13.621,0,0,0-3.2.537q-0.929.246-1.465,0.342,0-1.758.244-5.591t0.244-5.835l-0.781-16.5a8.317,8.317,0,0,1,1.074-.049l2.881,0.1q4.542,0,4.541-2.978a2.687,2.687,0,0,0-1.538-2.368,5.994,5.994,0,0,0-3.052-.9l-8.642.879v72.168a3.634,3.634,0,0,0,.39,1.807q0.879,1.464,4.688,1.465h3.125q2,0,3.223-.1a8.977,8.977,0,0,0,2.856-.83,4.54,4.54,0,0,0,2.319-2.1v-0.341q0-2.637-5.566-2.637-0.147,0-5.273.293v-30.86a2.114,2.114,0,0,1,1.757-.732l2.491,0.1A2.312,2.312,0,0,0,441.422,943.886Zm17.139-18.115a30.133,30.133,0,0,1,.976-8.5q1.953-6.543,9.668-6.543v0.39h1.563v-0.195a2.417,2.417,0,0,0,2.221,1.221,3.981,3.981,0,0,0,2.32-.586,1.914,1.914,0,0,0,.83-1.66,4.01,4.01,0,0,0-2.3-3.54,9.186,9.186,0,0,0-4.688-1.343,17.674,17.674,0,0,0-11.328,3.637,11.844,11.844,0,0,0-4.59,9.791,17.5,17.5,0,0,0,.293,3.125,68.576,68.576,0,0,0-.683,11.621q0,8.1.976,23.1t2.686,18.6a14.678,14.678,0,0,0,4.98,5.884,11.552,11.552,0,0,0,6.641,2.27q6.3,0,9.18-3.271a6.988,6.988,0,0,0,1.757-4.932v-1.318a9.987,9.987,0,0,1-3.173.488q-2.443,2.881-7.081,2.881t-6.884-3.272q-1.27-1.854-2.613-15.381t-1.342-18.6l0.879-6.983ZM491.1,905.556a2.893,2.893,0,0,0-2-.83,2.926,2.926,0,0,0-1.832.561,1.787,1.787,0,0,0-.732,1.49q0,11.377,1,34.106t1,34.106l-0.635,4.395a2.916,2.916,0,0,0,1.05,2.222,3.715,3.715,0,0,0,2.588.952,3.214,3.214,0,0,0,2.563-1.221l3.223,0.147a8.313,8.313,0,0,0,1.9-.2,5.817,5.817,0,0,0,1.807.342,2.043,2.043,0,0,0,1.514-.854,2.577,2.577,0,0,0,.488-2.906,6.251,6.251,0,0,0-1.9-1.416H494.01V973.28q0-6-.733-17.871-0.292-5.321-.439-8.2v-0.439a23.415,23.415,0,0,0,.195-3.174l-1.025-35.986h0A2.677,2.677,0,0,0,491.1,905.556ZM525.553,959.9a27.368,27.368,0,0,1-6.885-1.123,28.068,28.068,0,0,1,1.416-6.543q0.635-2.052.928-3.223t2.514-14.649q2.221-13.476,2.808-14.16-0.049.246-.049,2.954t2.2,25.66q0.831,8.984.977,10.791A18.114,18.114,0,0,1,525.553,959.9Zm4.3-52.93a4.7,4.7,0,0,0-2.979-.879q-3.125,0-5.81,12.891-0.538,2.442-3.223,17.627-6.885,38.427-9.131,41.7,0.487,2,5.322,2,1.466-2.393,2.124-8.716t1.88-8.374a56.476,56.476,0,0,1,6.47.879,14.183,14.183,0,0,1,5.054,1.66V978.8q0,2.589,3.271,2.588t3.272-3.369q0-12.3-2.149-34.766t-4.1-36.474v0.195Zm48.242,71.777-3.028-2.539a68.018,68.018,0,0,0-11.328,1.026,75.132,75.132,0,0,1,4.053-9.205q2.929-5.833,3.516-7.2a88.164,88.164,0,0,0,5.542-18.481,101.293,101.293,0,0,0,2.173-19.556q0-2.783-.147-5.42-0.1-1.758-.269-2.881t-0.61-3.027a12.23,12.23,0,0,0-2.2-4.3q-2.3-3.222-7.52-3.222v0.048a4.726,4.726,0,0,0-3.613,1.661,11.218,11.218,0,0,0-2.832,7.91q0,3.075,2.417,3.076t2.954-3.662q0.635-3.906,2.246-4.785,4.785,0.391,4.785,12.646a89.117,89.117,0,0,1-2.783,22.8,149.954,149.954,0,0,1-8.5,23.193q-0.587,1.27-2,5.347a20.6,20.6,0,0,1-3.515,6.567v0.391a2.6,2.6,0,0,0,1.123,2.2,4.163,4.163,0,0,0,2.539.83l15.234-.928Zm9.619-36.572q0,5.372.586,13.379a75.078,75.078,0,0,0,1.245,9.009,76.611,76.611,0,0,0,2.1,8.056,16.679,16.679,0,0,0,3.32,6.177,6.22,6.22,0,0,0,4.712,2.295q10.986,0,10.986-25.1,0-5.127-.488-10.888-0.2-2.295-.586-5.738t-0.635-5.224q-0.245-1.782-.781-5.713t-0.684-5.127q-0.145-1.2-.634-4.517-0.049-.537-0.318-1.977a16.116,16.116,0,0,0-.488-2.075q-0.221-.635-0.61-1.807a6.6,6.6,0,0,0-.9-1.856q-0.513-.682-1.172-1.586a8.9,8.9,0,0,0-1.513-1.612,19.6,19.6,0,0,0-2.661-1.733,7.035,7.035,0,0,0-3.467-1.026,8.216,8.216,0,0,0-3.028.538,7.3,7.3,0,0,0-3.711,4.2q-1.269,2.93-1.269,11.377v20.947Zm4.2-26.074a7.088,7.088,0,0,1,1.172-4.224,3.555,3.555,0,0,1,3-1.636q1.832,0,3.686,2.491a17.006,17.006,0,0,1,2.637,7.47q3.614,23.145,3.613,33.5A111.683,111.683,0,0,1,605,966.347a29.7,29.7,0,0,1-1.636,7.226q-1.147,2.979-2.71,2.979-4.639,0-6.3-17.188-0.831-8.592-.831-16.5l-1.074-9.766Zm41.455,60.01q0-7.911-1.1-23.707t-1.1-21.264a94.32,94.32,0,0,0-.757-11.572q-0.758-6.1-.757-7.813t-0.171-3.467a5.145,5.145,0,0,1,.025-2.1q-0.879-1.661-4.395-1.661-8.057,0-8.056,2.637,0,2.149,2.832,2.149l2.295-.1q3.466,0,3.466,4.687l-0.146,3.663q0,4.443.781,12.841,0.39,3.808.537,5.909,1.709,24.121,1.709,39.257,0,1.66-2.2,1.661-0.342,0-3.516-.245v2.149a2.2,2.2,0,0,0,1.1,2.2,6.8,6.8,0,0,0,2.954.537l2.979-.049q11.376,0,11.377-2.929,0-2.49-4.2-2.491v0.049a31.549,31.549,0,0,0-3.662.293h0v-0.634Zm28.321-4.932q0,6.69-2.491,6.689a3.119,3.119,0,0,1-2.49-1.074,3.27,3.27,0,0,1-.586-1.221,10.418,10.418,0,0,1-.317-1.318q-0.073-.487-0.171-1.538t-0.147-1.392q-2.393-18.064-2.392-27.49a11.156,11.156,0,0,1,.39-3.223,4.463,4.463,0,0,1,1.709-2.246q3.906,0.781,5.616,17.579A150.565,150.565,0,0,1,661.686,971.181Zm4.028,5.566a17.233,17.233,0,0,0,.561-3.222q0.1-1.465.1-5.152t-0.342-8.764q-0.292-3.711-.732-6.787a61.727,61.727,0,0,0-1.319-6.519,29.307,29.307,0,0,0-2.075-5.835,12.1,12.1,0,0,0-3.076-3.955,5.58,5.58,0,0,0-3.393-1.563,13.34,13.34,0,0,0-2.3.147q0.293-6.543,1.367-15.234t2.783-10.45a5.891,5.891,0,0,0,2.539-1.2,2.534,2.534,0,0,0,1.123-1.953,2.018,2.018,0,0,0-.757-1.66,2.389,2.389,0,0,0-1.489-.611q-10.5,0-10.5,34.473a196.2,196.2,0,0,0,1.514,23.877q0.146,1.124.293,3.613t0.268,4.37a26.874,26.874,0,0,0,.659,4.224,16.272,16.272,0,0,0,1.343,3.882,7.22,7.22,0,0,0,2.368,2.612,6.434,6.434,0,0,0,3.736,1.074,8.413,8.413,0,0,0,3.686-.732,6.426,6.426,0,0,0,2.344-1.807A7.9,7.9,0,0,0,665.714,976.747Z" />
  </g>
</svg>
